<mxfile host="app.diagrams.net" modified="2024-06-17T12:11:21.933Z" agent="Mozilla/5.0 (Windows NT 10.0; Win64; x64) AppleWebKit/537.36 (KHTML, like Gecko) Chrome/125.0.0.0 Safari/537.36" etag="7QjUW4AQxJ59wOAYtZMX" version="24.5.4" type="device">
  <diagram name="Page-1" id="r7ei3mxCO3cc_NnA-AZB">
    <mxGraphModel dx="1434" dy="772" grid="1" gridSize="10" guides="1" tooltips="1" connect="1" arrows="1" fold="1" page="1" pageScale="1" pageWidth="827" pageHeight="1169" math="0" shadow="0">
      <root>
        <mxCell id="0" />
        <mxCell id="1" parent="0" />
        <mxCell id="Hh8_-1sdyvbBBS1KuZF1-1" value="" style="shape=actor;whiteSpace=wrap;html=1;" vertex="1" parent="1">
          <mxGeometry x="50" y="30" width="40" height="60" as="geometry" />
        </mxCell>
        <mxCell id="Hh8_-1sdyvbBBS1KuZF1-2" value="Usuario" style="text;html=1;align=center;verticalAlign=middle;whiteSpace=wrap;rounded=0;" vertex="1" parent="1">
          <mxGeometry x="40" y="90" width="60" height="30" as="geometry" />
        </mxCell>
        <mxCell id="Hh8_-1sdyvbBBS1KuZF1-3" value="" style="outlineConnect=0;dashed=0;verticalLabelPosition=bottom;verticalAlign=top;align=center;html=1;shape=mxgraph.aws3.cloudfront;fillColor=#F58536;gradientColor=none;" vertex="1" parent="1">
          <mxGeometry x="225" y="25" width="50" height="70" as="geometry" />
        </mxCell>
        <mxCell id="Hh8_-1sdyvbBBS1KuZF1-4" value="Amazon CloudFront" style="text;html=1;align=center;verticalAlign=middle;whiteSpace=wrap;rounded=0;" vertex="1" parent="1">
          <mxGeometry x="220" y="95" width="60" height="30" as="geometry" />
        </mxCell>
        <mxCell id="Hh8_-1sdyvbBBS1KuZF1-8" value="" style="outlineConnect=0;dashed=0;verticalLabelPosition=bottom;verticalAlign=top;align=center;html=1;shape=mxgraph.aws3.s3;fillColor=#E05243;gradientColor=none;" vertex="1" parent="1">
          <mxGeometry x="415" y="25" width="60" height="70" as="geometry" />
        </mxCell>
        <mxCell id="Hh8_-1sdyvbBBS1KuZF1-9" value="Amazon S3" style="text;html=1;align=center;verticalAlign=middle;whiteSpace=wrap;rounded=0;" vertex="1" parent="1">
          <mxGeometry x="415" y="95" width="60" height="30" as="geometry" />
        </mxCell>
        <mxCell id="Hh8_-1sdyvbBBS1KuZF1-10" value="" style="outlineConnect=0;dashed=0;verticalLabelPosition=bottom;verticalAlign=top;align=center;html=1;shape=mxgraph.aws3.android;fillColor=#205E00;gradientColor=none;" vertex="1" parent="1">
          <mxGeometry x="660" y="23" width="60" height="67" as="geometry" />
        </mxCell>
        <mxCell id="Hh8_-1sdyvbBBS1KuZF1-11" value="Frontend JS" style="text;html=1;align=center;verticalAlign=middle;whiteSpace=wrap;rounded=0;" vertex="1" parent="1">
          <mxGeometry x="660" y="90" width="60" height="30" as="geometry" />
        </mxCell>
        <mxCell id="Hh8_-1sdyvbBBS1KuZF1-12" value="" style="outlineConnect=0;dashed=0;verticalLabelPosition=bottom;verticalAlign=top;align=center;html=1;shape=mxgraph.aws3.api_gateway;fillColor=#D9A741;gradientColor=none;" vertex="1" parent="1">
          <mxGeometry x="415" y="200" width="60" height="70" as="geometry" />
        </mxCell>
        <mxCell id="Hh8_-1sdyvbBBS1KuZF1-13" value="Amazon API GateWay" style="text;html=1;align=center;verticalAlign=middle;whiteSpace=wrap;rounded=0;" vertex="1" parent="1">
          <mxGeometry x="418" y="270" width="70" height="30" as="geometry" />
        </mxCell>
        <mxCell id="Hh8_-1sdyvbBBS1KuZF1-14" value="" style="image;aspect=fixed;perimeter=ellipsePerimeter;html=1;align=center;shadow=0;dashed=0;fontColor=#4277BB;labelBackgroundColor=default;fontSize=12;spacingTop=3;image=img/lib/ibm/infrastructure/mobile_backend.svg;" vertex="1" parent="1">
          <mxGeometry x="415" y="390" width="60" height="60" as="geometry" />
        </mxCell>
        <mxCell id="Hh8_-1sdyvbBBS1KuZF1-15" value="Backend en AWS" style="text;html=1;align=center;verticalAlign=middle;whiteSpace=wrap;rounded=0;" vertex="1" parent="1">
          <mxGeometry x="410" y="460" width="70" height="30" as="geometry" />
        </mxCell>
        <mxCell id="Hh8_-1sdyvbBBS1KuZF1-16" value="" style="outlineConnect=0;dashed=0;verticalLabelPosition=bottom;verticalAlign=top;align=center;html=1;shape=mxgraph.aws3.rds;fillColor=#2E73B8;gradientColor=none;" vertex="1" parent="1">
          <mxGeometry x="257" y="540" width="61" height="60" as="geometry" />
        </mxCell>
        <mxCell id="Hh8_-1sdyvbBBS1KuZF1-17" value="Amazon RDS - DB Relacional" style="text;html=1;align=center;verticalAlign=middle;whiteSpace=wrap;rounded=0;" vertex="1" parent="1">
          <mxGeometry x="249.5" y="610" width="76" height="40" as="geometry" />
        </mxCell>
        <mxCell id="Hh8_-1sdyvbBBS1KuZF1-18" value="Amazon DynamoDB" style="sketch=0;outlineConnect=0;fontColor=#232F3E;gradientColor=none;strokeColor=#ffffff;fillColor=#232F3E;dashed=0;verticalLabelPosition=middle;verticalAlign=bottom;align=center;html=1;whiteSpace=wrap;fontSize=10;fontStyle=1;spacing=3;shape=mxgraph.aws4.productIcon;prIcon=mxgraph.aws4.dynamodb;" vertex="1" parent="1">
          <mxGeometry x="563" y="540" width="70" height="100" as="geometry" />
        </mxCell>
        <mxCell id="Hh8_-1sdyvbBBS1KuZF1-19" value="DB No Relacional" style="text;html=1;align=center;verticalAlign=middle;whiteSpace=wrap;rounded=0;" vertex="1" parent="1">
          <mxGeometry x="568" y="640" width="60" height="30" as="geometry" />
        </mxCell>
        <mxCell id="Hh8_-1sdyvbBBS1KuZF1-25" value="" style="endArrow=classic;startArrow=classic;html=1;rounded=0;exitX=0.9;exitY=0.5;exitDx=0;exitDy=0;exitPerimeter=0;entryX=0;entryY=0.5;entryDx=0;entryDy=0;entryPerimeter=0;" edge="1" parent="1" source="Hh8_-1sdyvbBBS1KuZF1-1" target="Hh8_-1sdyvbBBS1KuZF1-3">
          <mxGeometry width="50" height="50" relative="1" as="geometry">
            <mxPoint x="90" y="73" as="sourcePoint" />
            <mxPoint x="140" y="23" as="targetPoint" />
          </mxGeometry>
        </mxCell>
        <mxCell id="Hh8_-1sdyvbBBS1KuZF1-27" value="" style="endArrow=classic;startArrow=classic;html=1;rounded=0;exitX=0.9;exitY=0.5;exitDx=0;exitDy=0;exitPerimeter=0;entryX=0;entryY=0.5;entryDx=0;entryDy=0;entryPerimeter=0;" edge="1" parent="1">
          <mxGeometry width="50" height="50" relative="1" as="geometry">
            <mxPoint x="271" y="59.5" as="sourcePoint" />
            <mxPoint x="410" y="59.5" as="targetPoint" />
          </mxGeometry>
        </mxCell>
        <mxCell id="Hh8_-1sdyvbBBS1KuZF1-28" value="" style="endArrow=classic;startArrow=classic;html=1;rounded=0;exitX=0.9;exitY=0.5;exitDx=0;exitDy=0;exitPerimeter=0;" edge="1" parent="1">
          <mxGeometry width="50" height="50" relative="1" as="geometry">
            <mxPoint x="475" y="59.5" as="sourcePoint" />
            <mxPoint x="660" y="60" as="targetPoint" />
          </mxGeometry>
        </mxCell>
        <mxCell id="Hh8_-1sdyvbBBS1KuZF1-29" value="" style="endArrow=classic;html=1;rounded=0;exitX=0.5;exitY=1;exitDx=0;exitDy=0;entryX=0.5;entryY=0;entryDx=0;entryDy=0;entryPerimeter=0;" edge="1" parent="1" source="Hh8_-1sdyvbBBS1KuZF1-9" target="Hh8_-1sdyvbBBS1KuZF1-12">
          <mxGeometry width="50" height="50" relative="1" as="geometry">
            <mxPoint x="390" y="320" as="sourcePoint" />
            <mxPoint x="440" y="270" as="targetPoint" />
          </mxGeometry>
        </mxCell>
        <mxCell id="Hh8_-1sdyvbBBS1KuZF1-30" value="" style="endArrow=classic;html=1;rounded=0;exitX=0.5;exitY=1;exitDx=0;exitDy=0;entryX=0.5;entryY=0;entryDx=0;entryDy=0;" edge="1" parent="1" target="Hh8_-1sdyvbBBS1KuZF1-14">
          <mxGeometry width="50" height="50" relative="1" as="geometry">
            <mxPoint x="444.5" y="300" as="sourcePoint" />
            <mxPoint x="444.5" y="375" as="targetPoint" />
          </mxGeometry>
        </mxCell>
        <mxCell id="Hh8_-1sdyvbBBS1KuZF1-35" value="" style="endArrow=none;html=1;rounded=0;entryX=0;entryY=0.75;entryDx=0;entryDy=0;" edge="1" parent="1" source="Hh8_-1sdyvbBBS1KuZF1-16" target="Hh8_-1sdyvbBBS1KuZF1-14">
          <mxGeometry width="50" height="50" relative="1" as="geometry">
            <mxPoint x="368" y="480" as="sourcePoint" />
            <mxPoint x="418" y="430" as="targetPoint" />
          </mxGeometry>
        </mxCell>
        <mxCell id="Hh8_-1sdyvbBBS1KuZF1-36" value="" style="endArrow=none;html=1;rounded=0;entryX=1;entryY=0.75;entryDx=0;entryDy=0;" edge="1" parent="1" source="Hh8_-1sdyvbBBS1KuZF1-18" target="Hh8_-1sdyvbBBS1KuZF1-14">
          <mxGeometry width="50" height="50" relative="1" as="geometry">
            <mxPoint x="570" y="530" as="sourcePoint" />
            <mxPoint x="428" y="443" as="targetPoint" />
          </mxGeometry>
        </mxCell>
      </root>
    </mxGraphModel>
  </diagram>
</mxfile>
